<svg width="201" height="48" viewBox="0 0 201 48" fill="none" xmlns="http://www.w3.org/2000/svg">
<path d="M3.22677 34.3921C3.01587 34.3921 2.83661 34.3183 2.68898 34.1706C2.54135 34.023 2.46753 33.8437 2.46753 33.6328V13.0385C2.46753 12.8065 2.5308 12.6167 2.65734 12.469C2.80497 12.3214 2.99478 12.2476 3.22677 12.2476H6.10556C6.33755 12.2476 6.51681 12.3214 6.64335 12.469C6.79098 12.6167 6.8648 12.8065 6.8648 13.0385V21.2003H16.1971V13.0385C16.1971 12.8065 16.2604 12.6167 16.3869 12.469C16.5346 12.3214 16.7244 12.2476 16.9564 12.2476H19.8035C20.0355 12.2476 20.2253 12.3214 20.3729 12.469C20.5206 12.6167 20.5944 12.8065 20.5944 13.0385V33.6328C20.5944 33.8648 20.5206 34.0546 20.3729 34.2023C20.2253 34.3288 20.0355 34.3921 19.8035 34.3921H16.9564C16.7455 34.3921 16.5662 34.3183 16.4186 34.1706C16.2709 34.023 16.1971 33.8437 16.1971 33.6328V25.1547H6.8648V33.6328C6.8648 33.8437 6.79098 34.023 6.64335 34.1706C6.51681 34.3183 6.33755 34.3921 6.10556 34.3921H3.22677ZM27.2734 34.3921C27.0625 34.3921 26.8832 34.3183 26.7356 34.1706C26.5879 34.023 26.5141 33.8437 26.5141 33.6328V13.0385C26.5141 12.8065 26.5774 12.6167 26.7039 12.469C26.8516 12.3214 27.0414 12.2476 27.2734 12.2476H41.1928C41.4248 12.2476 41.6146 12.3214 41.7622 12.469C41.9098 12.6167 41.9836 12.8065 41.9836 13.0385V15.1264C41.9836 15.3584 41.9098 15.5482 41.7622 15.6958C41.6146 15.8223 41.4248 15.8856 41.1928 15.8856H30.7848V21.485H40.4968C40.7288 21.485 40.9186 21.5588 41.0662 21.7065C41.2139 21.833 41.2877 22.0123 41.2877 22.2442V24.2056C41.2877 24.4376 41.2139 24.6274 41.0662 24.775C40.9186 24.9016 40.7288 24.9649 40.4968 24.9649H30.7848V30.7541H41.4458C41.6778 30.7541 41.8676 30.8279 42.0153 30.9755C42.1629 31.1231 42.2367 31.3129 42.2367 31.5449V33.6328C42.2367 33.8648 42.1629 34.0546 42.0153 34.2023C41.8676 34.3288 41.6778 34.3921 41.4458 34.3921H27.2734ZM45.833 34.3921C45.6643 34.3921 45.5061 34.3288 45.3585 34.2023C45.2319 34.0757 45.1687 33.9176 45.1687 33.7278L45.2319 33.443L52.856 13.0385C53.0036 12.5112 53.3727 12.2476 53.9632 12.2476H57.4114C57.9598 12.2476 58.3288 12.5112 58.5186 13.0385L66.1427 33.443C66.1638 33.5063 66.1743 33.6012 66.1743 33.7278C66.1743 33.9176 66.111 34.0757 65.9845 34.2023C65.858 34.3288 65.7103 34.3921 65.5416 34.3921H62.7894C62.5152 34.3921 62.3043 34.3288 62.1567 34.2023C62.009 34.0757 61.9141 33.9387 61.872 33.791L60.3851 29.9316H50.9895L49.5027 33.791C49.334 34.1917 49.0281 34.3921 48.5853 34.3921H45.833ZM59.2779 26.2935L55.6715 16.5183L52.0967 26.2935H59.2779ZM70.887 34.3921C70.6761 34.3921 70.4968 34.3183 70.3492 34.1706C70.2016 34.023 70.1277 33.8437 70.1277 33.6328V13.0068C70.1277 12.7748 70.2016 12.5956 70.3492 12.469C70.4968 12.3214 70.6761 12.2476 70.887 12.2476H73.829C74.061 12.2476 74.2403 12.3214 74.3668 12.469C74.5145 12.5956 74.5883 12.7748 74.5883 13.0068V30.6275H84.6166C84.8486 30.6275 85.0384 30.7013 85.186 30.849C85.3336 30.9966 85.4074 31.1864 85.4074 31.4184V33.6328C85.4074 33.8648 85.3336 34.0546 85.186 34.2023C85.0384 34.3288 84.8486 34.3921 84.6166 34.3921H70.887ZM91.5259 34.3921C91.315 34.3921 91.1357 34.3183 90.9881 34.1706C90.8405 34.023 90.7667 33.8437 90.7667 33.6328V16.1387H84.9142C84.7033 16.1387 84.524 16.0649 84.3764 15.9172C84.2288 15.7696 84.1549 15.5904 84.1549 15.3795V13.0385C84.1549 12.8065 84.2182 12.6167 84.3447 12.469C84.4924 12.3214 84.6822 12.2476 84.9142 12.2476H101.048C101.28 12.2476 101.47 12.3214 101.617 12.469C101.765 12.6167 101.839 12.8065 101.839 13.0385V15.3795C101.839 15.5904 101.765 15.7696 101.617 15.9172C101.47 16.0649 101.28 16.1387 101.048 16.1387H95.2272V33.6328C95.2272 33.8437 95.1534 34.023 95.0057 34.1706C94.8581 34.3183 94.6683 34.3921 94.4363 34.3921H91.5259ZM114.189 34.7084C111.278 34.7084 109.022 33.9597 107.419 32.4624C105.837 30.965 104.993 28.856 104.888 26.1354C104.867 25.5659 104.856 24.638 104.856 23.3515C104.856 22.0439 104.867 21.0948 104.888 20.5043C104.993 17.8048 105.848 15.7063 107.45 14.209C109.074 12.6905 111.32 11.9312 114.189 11.9312C116.066 11.9312 117.7 12.2581 119.092 12.9119C120.484 13.5446 121.56 14.4199 122.319 15.5376C123.078 16.6343 123.479 17.8786 123.521 19.2706V19.3338C123.521 19.5025 123.447 19.6502 123.3 19.7767C123.173 19.8822 123.025 19.9349 122.857 19.9349H119.851C119.598 19.9349 119.408 19.8822 119.282 19.7767C119.155 19.6713 119.05 19.4709 118.966 19.1757C118.628 17.847 118.069 16.919 117.289 16.3918C116.509 15.8434 115.465 15.5693 114.157 15.5693C111.12 15.5693 109.538 17.267 109.412 20.6625C109.391 21.2319 109.38 22.1072 109.38 23.2882C109.38 24.4692 109.391 25.3656 109.412 25.9772C109.538 29.3727 111.12 31.0704 114.157 31.0704C115.465 31.0704 116.509 30.7962 117.289 30.2479C118.09 29.6996 118.649 28.7716 118.966 27.464C119.029 27.1688 119.124 26.9684 119.25 26.863C119.398 26.7575 119.598 26.7048 119.851 26.7048H122.857C123.046 26.7048 123.205 26.7681 123.331 26.8946C123.479 27.0211 123.542 27.1793 123.521 27.3691C123.479 28.7611 123.078 30.0159 122.319 31.1337C121.56 32.2304 120.484 33.1056 119.092 33.7594C117.7 34.3921 116.066 34.7084 114.189 34.7084ZM126.665 34.3921C126.497 34.3921 126.338 34.3288 126.191 34.2023C126.064 34.0757 126.001 33.9176 126.001 33.7278L126.064 33.443L133.688 13.0385C133.836 12.5112 134.205 12.2476 134.795 12.2476H138.244C138.792 12.2476 139.161 12.5112 139.351 13.0385L146.975 33.443C146.996 33.5063 147.007 33.6012 147.007 33.7278C147.007 33.9176 146.943 34.0757 146.817 34.2023C146.69 34.3288 146.543 34.3921 146.374 34.3921H143.622C143.347 34.3921 143.137 34.3288 142.989 34.2023C142.841 34.0757 142.746 33.9387 142.704 33.791L141.217 29.9316H131.822L130.335 33.791C130.166 34.1917 129.86 34.3921 129.418 34.3921H126.665ZM140.11 26.2935L136.504 16.5183L132.929 26.2935H140.11ZM151.719 34.3921C151.508 34.3921 151.329 34.3183 151.181 34.1706C151.034 34.023 150.96 33.8437 150.96 33.6328V13.0385C150.96 12.8065 151.023 12.6167 151.15 12.469C151.297 12.3214 151.487 12.2476 151.719 12.2476H159.913C162.486 12.2476 164.5 12.8487 165.955 14.0508C167.431 15.2529 168.169 16.9612 168.169 19.1757C168.169 20.7152 167.79 22.0123 167.031 23.0668C166.292 24.1002 165.259 24.8489 163.93 25.3128L168.549 33.3798C168.612 33.5063 168.644 33.6223 168.644 33.7278C168.644 33.9176 168.57 34.0757 168.423 34.2023C168.296 34.3288 168.148 34.3921 167.98 34.3921H165.101C164.763 34.3921 164.5 34.3183 164.31 34.1706C164.141 34.023 163.983 33.8121 163.835 33.5379L159.755 26.0404H155.357V33.6328C155.357 33.8437 155.283 34.023 155.136 34.1706C155.009 34.3183 154.83 34.3921 154.598 34.3921H151.719ZM159.818 22.4657C161.083 22.4657 162.032 22.181 162.665 21.6115C163.319 21.0421 163.646 20.2196 163.646 19.144C163.646 18.0684 163.319 17.2354 162.665 16.6449C162.032 16.0543 161.083 15.7591 159.818 15.7591H155.357V22.4657H159.818ZM174.005 34.3921C173.794 34.3921 173.615 34.3183 173.467 34.1706C173.319 34.023 173.246 33.8437 173.246 33.6328V13.0385C173.246 12.8065 173.309 12.6167 173.435 12.469C173.583 12.3214 173.773 12.2476 174.005 12.2476H187.924C188.156 12.2476 188.346 12.3214 188.494 12.469C188.641 12.6167 188.715 12.8065 188.715 13.0385V15.1264C188.715 15.3584 188.641 15.5482 188.494 15.6958C188.346 15.8223 188.156 15.8856 187.924 15.8856H177.516V21.485H187.228C187.46 21.485 187.65 21.5588 187.798 21.7065C187.945 21.833 188.019 22.0123 188.019 22.2442V24.2056C188.019 24.4376 187.945 24.6274 187.798 24.775C187.65 24.9016 187.46 24.9649 187.228 24.9649H177.516V30.7541H188.177C188.409 30.7541 188.599 30.8279 188.747 30.9755C188.894 31.1231 188.968 31.3129 188.968 31.5449V33.6328C188.968 33.8648 188.894 34.0546 188.747 34.2023C188.599 34.3288 188.409 34.3921 188.177 34.3921H174.005Z" fill="#40A3F8"/>
<rect x="194" y="29.3921" width="7" height="7" rx="3.5" fill="#40A3F8"/>
</svg>
